<svg xmlns="http://www.w3.org/2000/svg" xmlns:xlink="http://www.w3.org/1999/xlink" width="1920" height="1080" viewBox="0 0 1920 1080">
  <defs>
    <filter id="Ellipse_1" x="-1492.5" y="-243.5" width="1824" height="1547" filterUnits="userSpaceOnUse">
      <feOffset dx="10" dy="10" input="SourceAlpha"/>
      <feGaussianBlur stdDeviation="49.5" result="blur"/>
      <feFlood flood-color="#ffa200" flood-opacity="0.631"/>
      <feComposite operator="in" in2="blur"/>
      <feComposite in="SourceGraphic"/>
    </filter>
    <filter id="Ellipse_2" x="1594.5" y="-263.5" width="1824" height="1588" filterUnits="userSpaceOnUse">
      <feOffset dx="10" dy="10" input="SourceAlpha"/>
      <feGaussianBlur stdDeviation="49.5" result="blur-2"/>
      <feFlood flood-color="#ffa200" flood-opacity="0.631"/>
      <feComposite operator="in" in2="blur-2"/>
      <feComposite in="SourceGraphic"/>
    </filter>
    <clipPath id="clip-Web_1920_2">
      <rect width="1920" height="1080"/>
    </clipPath>
  </defs>
  <g id="Web_1920_2" data-name="Web 1920 – 2" clip-path="url(#clip-Web_1920_2)">
    <rect width="1920" height="1080" fill="rgba(255,255,255,0)"/>
    <g transform="matrix(1, 0, 0, 1, 0, 0)" filter="url(#Ellipse_1)">
      <ellipse id="Ellipse_1-2" data-name="Ellipse 1" cx="763.5" cy="625" rx="763.5" ry="625" transform="translate(-1354 -105)" fill="rgba(253,242,230,0.31)"/>
    </g>
    <g transform="matrix(1, 0, 0, 1, 0, 0)" filter="url(#Ellipse_2)">
      <ellipse id="Ellipse_2-2" data-name="Ellipse 2" cx="763.5" cy="645.5" rx="763.5" ry="645.5" transform="translate(1733 -125)" fill="rgba(253,242,230,0.31)"/>
    </g>
    <g id="Icon_ionic-ios-paw" data-name="Icon ionic-ios-paw" transform="translate(3.23 243.61) rotate(-20)">
      <path id="Path_1" data-name="Path 1" d="M22.786,5.646a1.53,1.53,0,0,0-.252-.021v.007h-.028c-1.54,0-3,1.813-3.346,4.221-.371,2.562.658,4.83,2.289,5.068a1.885,1.885,0,0,0,.28.021c1.54,0,3-1.813,3.346-4.221C25.445,8.152,24.416,5.884,22.786,5.646Z" transform="translate(-0.071)" fill="#ff5700"/>
      <path id="Path_2" data-name="Path 2" d="M22.542,5.625Z" transform="translate(-0.086)" fill="#ff5700"/>
      <path id="Path_3" data-name="Path 3" d="M31.076,11.91a2.027,2.027,0,0,0-.763-.147h-.028c-1.379.021-2.926,1.344-3.738,3.346-.973,2.394-.525,4.844,1.008,5.474a2.027,2.027,0,0,0,.763.147c1.386,0,2.954-1.33,3.773-3.346C33.057,14.99,32.6,12.54,31.076,11.91Z" transform="translate(-0.102 -0.028)" fill="#ff5700"/>
      <path id="Path_4" data-name="Path 4" d="M22.961,20.751c-1.946-3.052-2.786-4.2-5.012-4.2s-3.073,1.155-5.019,4.2c-1.666,2.6-5.033,2.821-5.873,5.033a3.208,3.208,0,0,0-.252,1.274,3.252,3.252,0,0,0,3.248,3.255c2.226,0,5.257-1.68,7.9-1.68s5.663,1.68,7.888,1.68a3.246,3.246,0,0,0,3.241-3.255,3.212,3.212,0,0,0-.259-1.274C27.987,23.565,24.627,23.355,22.961,20.751Z" transform="translate(-0.015 -0.049)" fill="#ff5700"/>
      <path id="Path_5" data-name="Path 5" d="M14.244,14.934a1.885,1.885,0,0,0,.28-.021c1.638-.238,2.66-2.506,2.289-5.068C16.463,7.431,15,5.625,13.467,5.625a1.885,1.885,0,0,0-.28.021c-1.638.238-2.66,2.506-2.289,5.068C11.248,13.121,12.711,14.934,14.244,14.934Z" transform="translate(-0.034 0)" fill="#ff5700"/>
      <path id="Path_6" data-name="Path 6" d="M8.422,20.583c1.533-.63,1.981-3.08,1.008-5.474-.819-2.016-2.387-3.346-3.773-3.346a2.027,2.027,0,0,0-.763.147c-1.533.63-1.981,3.08-1.008,5.474C4.7,19.4,6.273,20.73,7.659,20.73A2.027,2.027,0,0,0,8.422,20.583Z" transform="translate(0 -0.028)" fill="#ff5700"/>
    </g>
    <g id="Icon_ionic-ios-paw-2" data-name="Icon ionic-ios-paw" transform="translate(39.025 420.61) rotate(-20)">
      <path id="Path_1-2" data-name="Path 1" d="M22.786,5.646a1.53,1.53,0,0,0-.252-.021v.007h-.028c-1.54,0-3,1.813-3.346,4.221-.371,2.562.658,4.83,2.289,5.068a1.885,1.885,0,0,0,.28.021c1.54,0,3-1.813,3.346-4.221C25.445,8.152,24.416,5.884,22.786,5.646Z" transform="translate(-0.071)" fill="#ff5700"/>
      <path id="Path_2-2" data-name="Path 2" d="M22.542,5.625Z" transform="translate(-0.086)" fill="#ff5700"/>
      <path id="Path_3-2" data-name="Path 3" d="M31.076,11.91a2.027,2.027,0,0,0-.763-.147h-.028c-1.379.021-2.926,1.344-3.738,3.346-.973,2.394-.525,4.844,1.008,5.474a2.027,2.027,0,0,0,.763.147c1.386,0,2.954-1.33,3.773-3.346C33.057,14.99,32.6,12.54,31.076,11.91Z" transform="translate(-0.102 -0.028)" fill="#ff5700"/>
      <path id="Path_4-2" data-name="Path 4" d="M22.961,20.751c-1.946-3.052-2.786-4.2-5.012-4.2s-3.073,1.155-5.019,4.2c-1.666,2.6-5.033,2.821-5.873,5.033a3.208,3.208,0,0,0-.252,1.274,3.252,3.252,0,0,0,3.248,3.255c2.226,0,5.257-1.68,7.9-1.68s5.663,1.68,7.888,1.68a3.246,3.246,0,0,0,3.241-3.255,3.212,3.212,0,0,0-.259-1.274C27.987,23.565,24.627,23.355,22.961,20.751Z" transform="translate(-0.015 -0.049)" fill="#ff5700"/>
      <path id="Path_5-2" data-name="Path 5" d="M14.244,14.934a1.885,1.885,0,0,0,.28-.021c1.638-.238,2.66-2.506,2.289-5.068C16.463,7.431,15,5.625,13.467,5.625a1.885,1.885,0,0,0-.28.021c-1.638.238-2.66,2.506-2.289,5.068C11.248,13.121,12.711,14.934,14.244,14.934Z" transform="translate(-0.034 0)" fill="#ff5700"/>
      <path id="Path_6-2" data-name="Path 6" d="M8.422,20.583c1.533-.63,1.981-3.08,1.008-5.474-.819-2.016-2.387-3.346-3.773-3.346a2.027,2.027,0,0,0-.763.147c-1.533.63-1.981,3.08-1.008,5.474C4.7,19.4,6.273,20.73,7.659,20.73A2.027,2.027,0,0,0,8.422,20.583Z" transform="translate(0 -0.028)" fill="#ff5700"/>
    </g>
    <g id="Icon_ionic-ios-paw-3" data-name="Icon ionic-ios-paw" transform="translate(56.922 662.61) rotate(-20)">
      <path id="Path_1-3" data-name="Path 1" d="M22.786,5.646a1.53,1.53,0,0,0-.252-.021v.007h-.028c-1.54,0-3,1.813-3.346,4.221-.371,2.562.658,4.83,2.289,5.068a1.885,1.885,0,0,0,.28.021c1.54,0,3-1.813,3.346-4.221C25.445,8.152,24.416,5.884,22.786,5.646Z" transform="translate(-0.071)" fill="#ff5700"/>
      <path id="Path_2-3" data-name="Path 2" d="M22.542,5.625Z" transform="translate(-0.086)" fill="#ff5700"/>
      <path id="Path_3-3" data-name="Path 3" d="M31.076,11.91a2.027,2.027,0,0,0-.763-.147h-.028c-1.379.021-2.926,1.344-3.738,3.346-.973,2.394-.525,4.844,1.008,5.474a2.027,2.027,0,0,0,.763.147c1.386,0,2.954-1.33,3.773-3.346C33.057,14.99,32.6,12.54,31.076,11.91Z" transform="translate(-0.102 -0.028)" fill="#ff5700"/>
      <path id="Path_4-3" data-name="Path 4" d="M22.961,20.751c-1.946-3.052-2.786-4.2-5.012-4.2s-3.073,1.155-5.019,4.2c-1.666,2.6-5.033,2.821-5.873,5.033a3.208,3.208,0,0,0-.252,1.274,3.252,3.252,0,0,0,3.248,3.255c2.226,0,5.257-1.68,7.9-1.68s5.663,1.68,7.888,1.68a3.246,3.246,0,0,0,3.241-3.255,3.212,3.212,0,0,0-.259-1.274C27.987,23.565,24.627,23.355,22.961,20.751Z" transform="translate(-0.015 -0.049)" fill="#ff5700"/>
      <path id="Path_5-3" data-name="Path 5" d="M14.244,14.934a1.885,1.885,0,0,0,.28-.021c1.638-.238,2.66-2.506,2.289-5.068C16.463,7.431,15,5.625,13.467,5.625a1.885,1.885,0,0,0-.28.021c-1.638.238-2.66,2.506-2.289,5.068C11.248,13.121,12.711,14.934,14.244,14.934Z" transform="translate(-0.034 0)" fill="#ff5700"/>
      <path id="Path_6-3" data-name="Path 6" d="M8.422,20.583c1.533-.63,1.981-3.08,1.008-5.474-.819-2.016-2.387-3.346-3.773-3.346a2.027,2.027,0,0,0-.763.147c-1.533.63-1.981,3.08-1.008,5.474C4.7,19.4,6.273,20.73,7.659,20.73A2.027,2.027,0,0,0,8.422,20.583Z" transform="translate(0 -0.028)" fill="#ff5700"/>
    </g>
    <g id="Icon_ionic-ios-paw-4" data-name="Icon ionic-ios-paw" transform="translate(84.333 387.497) rotate(-20)">
      <path id="Path_1-4" data-name="Path 1" d="M22.786,5.646a1.53,1.53,0,0,0-.252-.021v.007h-.028c-1.54,0-3,1.813-3.346,4.221-.371,2.562.658,4.83,2.289,5.068a1.885,1.885,0,0,0,.28.021c1.54,0,3-1.813,3.346-4.221C25.445,8.152,24.416,5.884,22.786,5.646Z" transform="translate(-0.071)" fill="#ff5700"/>
      <path id="Path_2-4" data-name="Path 2" d="M22.542,5.625Z" transform="translate(-0.086)" fill="#ff5700"/>
      <path id="Path_3-4" data-name="Path 3" d="M31.076,11.91a2.027,2.027,0,0,0-.763-.147h-.028c-1.379.021-2.926,1.344-3.738,3.346-.973,2.394-.525,4.844,1.008,5.474a2.027,2.027,0,0,0,.763.147c1.386,0,2.954-1.33,3.773-3.346C33.057,14.99,32.6,12.54,31.076,11.91Z" transform="translate(-0.102 -0.028)" fill="#ff5700"/>
      <path id="Path_4-4" data-name="Path 4" d="M22.961,20.751c-1.946-3.052-2.786-4.2-5.012-4.2s-3.073,1.155-5.019,4.2c-1.666,2.6-5.033,2.821-5.873,5.033a3.208,3.208,0,0,0-.252,1.274,3.252,3.252,0,0,0,3.248,3.255c2.226,0,5.257-1.68,7.9-1.68s5.663,1.68,7.888,1.68a3.246,3.246,0,0,0,3.241-3.255,3.212,3.212,0,0,0-.259-1.274C27.987,23.565,24.627,23.355,22.961,20.751Z" transform="translate(-0.015 -0.049)" fill="#ff5700"/>
      <path id="Path_5-4" data-name="Path 5" d="M14.244,14.934a1.885,1.885,0,0,0,.28-.021c1.638-.238,2.66-2.506,2.289-5.068C16.463,7.431,15,5.625,13.467,5.625a1.885,1.885,0,0,0-.28.021c-1.638.238-2.66,2.506-2.289,5.068C11.248,13.121,12.711,14.934,14.244,14.934Z" transform="translate(-0.034 0)" fill="#ff5700"/>
      <path id="Path_6-4" data-name="Path 6" d="M8.422,20.583c1.533-.63,1.981-3.08,1.008-5.474-.819-2.016-2.387-3.346-3.773-3.346a2.027,2.027,0,0,0-.763.147c-1.533.63-1.981,3.08-1.008,5.474C4.7,19.4,6.273,20.73,7.659,20.73A2.027,2.027,0,0,0,8.422,20.583Z" transform="translate(0 -0.028)" fill="#ff5700"/>
    </g>
    <g id="Icon_ionic-ios-paw-5" data-name="Icon ionic-ios-paw" transform="translate(3.23 343.497) rotate(-20)">
      <path id="Path_1-5" data-name="Path 1" d="M22.786,5.646a1.53,1.53,0,0,0-.252-.021v.007h-.028c-1.54,0-3,1.813-3.346,4.221-.371,2.562.658,4.83,2.289,5.068a1.885,1.885,0,0,0,.28.021c1.54,0,3-1.813,3.346-4.221C25.445,8.152,24.416,5.884,22.786,5.646Z" transform="translate(-0.071)" fill="#ff5700"/>
      <path id="Path_2-5" data-name="Path 2" d="M22.542,5.625Z" transform="translate(-0.086)" fill="#ff5700"/>
      <path id="Path_3-5" data-name="Path 3" d="M31.076,11.91a2.027,2.027,0,0,0-.763-.147h-.028c-1.379.021-2.926,1.344-3.738,3.346-.973,2.394-.525,4.844,1.008,5.474a2.027,2.027,0,0,0,.763.147c1.386,0,2.954-1.33,3.773-3.346C33.057,14.99,32.6,12.54,31.076,11.91Z" transform="translate(-0.102 -0.028)" fill="#ff5700"/>
      <path id="Path_4-5" data-name="Path 4" d="M22.961,20.751c-1.946-3.052-2.786-4.2-5.012-4.2s-3.073,1.155-5.019,4.2c-1.666,2.6-5.033,2.821-5.873,5.033a3.208,3.208,0,0,0-.252,1.274,3.252,3.252,0,0,0,3.248,3.255c2.226,0,5.257-1.68,7.9-1.68s5.663,1.68,7.888,1.68a3.246,3.246,0,0,0,3.241-3.255,3.212,3.212,0,0,0-.259-1.274C27.987,23.565,24.627,23.355,22.961,20.751Z" transform="translate(-0.015 -0.049)" fill="#ff5700"/>
      <path id="Path_5-5" data-name="Path 5" d="M14.244,14.934a1.885,1.885,0,0,0,.28-.021c1.638-.238,2.66-2.506,2.289-5.068C16.463,7.431,15,5.625,13.467,5.625a1.885,1.885,0,0,0-.28.021c-1.638.238-2.66,2.506-2.289,5.068C11.248,13.121,12.711,14.934,14.244,14.934Z" transform="translate(-0.034 0)" fill="#ff5700"/>
      <path id="Path_6-5" data-name="Path 6" d="M8.422,20.583c1.533-.63,1.981-3.08,1.008-5.474-.819-2.016-2.387-3.346-3.773-3.346a2.027,2.027,0,0,0-.763.147c-1.533.63-1.981,3.08-1.008,5.474C4.7,19.4,6.273,20.73,7.659,20.73A2.027,2.027,0,0,0,8.422,20.583Z" transform="translate(0 -0.028)" fill="#ff5700"/>
    </g>
    <g id="Icon_ionic-ios-paw-6" data-name="Icon ionic-ios-paw" transform="translate(15.505 559.342) rotate(20)">
      <path id="Path_1-6" data-name="Path 1" d="M22.786,5.646a1.53,1.53,0,0,0-.252-.021v.007h-.028c-1.54,0-3,1.813-3.346,4.221-.371,2.562.658,4.83,2.289,5.068a1.885,1.885,0,0,0,.28.021c1.54,0,3-1.813,3.346-4.221C25.445,8.152,24.416,5.884,22.786,5.646Z" transform="translate(-0.071)" fill="#ff5700"/>
      <path id="Path_2-6" data-name="Path 2" d="M22.542,5.625Z" transform="translate(-0.086)" fill="#ff5700"/>
      <path id="Path_3-6" data-name="Path 3" d="M31.076,11.91a2.027,2.027,0,0,0-.763-.147h-.028c-1.379.021-2.926,1.344-3.738,3.346-.973,2.394-.525,4.844,1.008,5.474a2.027,2.027,0,0,0,.763.147c1.386,0,2.954-1.33,3.773-3.346C33.057,14.99,32.6,12.54,31.076,11.91Z" transform="translate(-0.102 -0.028)" fill="#ff5700"/>
      <path id="Path_4-6" data-name="Path 4" d="M22.961,20.751c-1.946-3.052-2.786-4.2-5.012-4.2s-3.073,1.155-5.019,4.2c-1.666,2.6-5.033,2.821-5.873,5.033a3.208,3.208,0,0,0-.252,1.274,3.252,3.252,0,0,0,3.248,3.255c2.226,0,5.257-1.68,7.9-1.68s5.663,1.68,7.888,1.68a3.246,3.246,0,0,0,3.241-3.255,3.212,3.212,0,0,0-.259-1.274C27.987,23.565,24.627,23.355,22.961,20.751Z" transform="translate(-0.015 -0.049)" fill="#ff5700"/>
      <path id="Path_5-6" data-name="Path 5" d="M14.244,14.934a1.885,1.885,0,0,0,.28-.021c1.638-.238,2.66-2.506,2.289-5.068C16.463,7.431,15,5.625,13.467,5.625a1.885,1.885,0,0,0-.28.021c-1.638.238-2.66,2.506-2.289,5.068C11.248,13.121,12.711,14.934,14.244,14.934Z" transform="translate(-0.034 0)" fill="#ff5700"/>
      <path id="Path_6-6" data-name="Path 6" d="M8.422,20.583c1.533-.63,1.981-3.08,1.008-5.474-.819-2.016-2.387-3.346-3.773-3.346a2.027,2.027,0,0,0-.763.147c-1.533.63-1.981,3.08-1.008,5.474C4.7,19.4,6.273,20.73,7.659,20.73A2.027,2.027,0,0,0,8.422,20.583Z" transform="translate(0 -0.028)" fill="#ff5700"/>
    </g>
    <g id="Icon_ionic-ios-paw-7" data-name="Icon ionic-ios-paw" transform="translate(114.505 559.342) rotate(20)">
      <path id="Path_1-7" data-name="Path 1" d="M22.786,5.646a1.53,1.53,0,0,0-.252-.021v.007h-.028c-1.54,0-3,1.813-3.346,4.221-.371,2.562.658,4.83,2.289,5.068a1.885,1.885,0,0,0,.28.021c1.54,0,3-1.813,3.346-4.221C25.445,8.152,24.416,5.884,22.786,5.646Z" transform="translate(-0.071)" fill="#ff5700"/>
      <path id="Path_2-7" data-name="Path 2" d="M22.542,5.625Z" transform="translate(-0.086)" fill="#ff5700"/>
      <path id="Path_3-7" data-name="Path 3" d="M31.076,11.91a2.027,2.027,0,0,0-.763-.147h-.028c-1.379.021-2.926,1.344-3.738,3.346-.973,2.394-.525,4.844,1.008,5.474a2.027,2.027,0,0,0,.763.147c1.386,0,2.954-1.33,3.773-3.346C33.057,14.99,32.6,12.54,31.076,11.91Z" transform="translate(-0.102 -0.028)" fill="#ff5700"/>
      <path id="Path_4-7" data-name="Path 4" d="M22.961,20.751c-1.946-3.052-2.786-4.2-5.012-4.2s-3.073,1.155-5.019,4.2c-1.666,2.6-5.033,2.821-5.873,5.033a3.208,3.208,0,0,0-.252,1.274,3.252,3.252,0,0,0,3.248,3.255c2.226,0,5.257-1.68,7.9-1.68s5.663,1.68,7.888,1.68a3.246,3.246,0,0,0,3.241-3.255,3.212,3.212,0,0,0-.259-1.274C27.987,23.565,24.627,23.355,22.961,20.751Z" transform="translate(-0.015 -0.049)" fill="#ff5700"/>
      <path id="Path_5-7" data-name="Path 5" d="M14.244,14.934a1.885,1.885,0,0,0,.28-.021c1.638-.238,2.66-2.506,2.289-5.068C16.463,7.431,15,5.625,13.467,5.625a1.885,1.885,0,0,0-.28.021c-1.638.238-2.66,2.506-2.289,5.068C11.248,13.121,12.711,14.934,14.244,14.934Z" transform="translate(-0.034 0)" fill="#ff5700"/>
      <path id="Path_6-7" data-name="Path 6" d="M8.422,20.583c1.533-.63,1.981-3.08,1.008-5.474-.819-2.016-2.387-3.346-3.773-3.346a2.027,2.027,0,0,0-.763.147c-1.533.63-1.981,3.08-1.008,5.474C4.7,19.4,6.273,20.73,7.659,20.73A2.027,2.027,0,0,0,8.422,20.583Z" transform="translate(0 -0.028)" fill="#ff5700"/>
    </g>
    <g id="Icon_ionic-ios-paw-8" data-name="Icon ionic-ios-paw" transform="translate(33.403 736.342) rotate(20)">
      <path id="Path_1-8" data-name="Path 1" d="M22.786,5.646a1.53,1.53,0,0,0-.252-.021v.007h-.028c-1.54,0-3,1.813-3.346,4.221-.371,2.562.658,4.83,2.289,5.068a1.885,1.885,0,0,0,.28.021c1.54,0,3-1.813,3.346-4.221C25.445,8.152,24.416,5.884,22.786,5.646Z" transform="translate(-0.071)" fill="#ff5700"/>
      <path id="Path_2-8" data-name="Path 2" d="M22.542,5.625Z" transform="translate(-0.086)" fill="#ff5700"/>
      <path id="Path_3-8" data-name="Path 3" d="M31.076,11.91a2.027,2.027,0,0,0-.763-.147h-.028c-1.379.021-2.926,1.344-3.738,3.346-.973,2.394-.525,4.844,1.008,5.474a2.027,2.027,0,0,0,.763.147c1.386,0,2.954-1.33,3.773-3.346C33.057,14.99,32.6,12.54,31.076,11.91Z" transform="translate(-0.102 -0.028)" fill="#ff5700"/>
      <path id="Path_4-8" data-name="Path 4" d="M22.961,20.751c-1.946-3.052-2.786-4.2-5.012-4.2s-3.073,1.155-5.019,4.2c-1.666,2.6-5.033,2.821-5.873,5.033a3.208,3.208,0,0,0-.252,1.274,3.252,3.252,0,0,0,3.248,3.255c2.226,0,5.257-1.68,7.9-1.68s5.663,1.68,7.888,1.68a3.246,3.246,0,0,0,3.241-3.255,3.212,3.212,0,0,0-.259-1.274C27.987,23.565,24.627,23.355,22.961,20.751Z" transform="translate(-0.015 -0.049)" fill="#ff5700"/>
      <path id="Path_5-8" data-name="Path 5" d="M14.244,14.934a1.885,1.885,0,0,0,.28-.021c1.638-.238,2.66-2.506,2.289-5.068C16.463,7.431,15,5.625,13.467,5.625a1.885,1.885,0,0,0-.28.021c-1.638.238-2.66,2.506-2.289,5.068C11.248,13.121,12.711,14.934,14.244,14.934Z" transform="translate(-0.034 0)" fill="#ff5700"/>
      <path id="Path_6-8" data-name="Path 6" d="M8.422,20.583c1.533-.63,1.981-3.08,1.008-5.474-.819-2.016-2.387-3.346-3.773-3.346a2.027,2.027,0,0,0-.763.147c-1.533.63-1.981,3.08-1.008,5.474C4.7,19.4,6.273,20.73,7.659,20.73A2.027,2.027,0,0,0,8.422,20.583Z" transform="translate(0 -0.028)" fill="#ff5700"/>
    </g>
    <g id="Icon_ionic-ios-paw-9" data-name="Icon ionic-ios-paw" transform="translate(1786.23 276.724) rotate(-20)">
      <path id="Path_1-9" data-name="Path 1" d="M22.786,5.646a1.53,1.53,0,0,0-.252-.021v.007h-.028c-1.54,0-3,1.813-3.346,4.221-.371,2.562.658,4.83,2.289,5.068a1.885,1.885,0,0,0,.28.021c1.54,0,3-1.813,3.346-4.221C25.445,8.152,24.416,5.884,22.786,5.646Z" transform="translate(-0.071)" fill="#ff5700"/>
      <path id="Path_2-9" data-name="Path 2" d="M22.542,5.625Z" transform="translate(-0.086)" fill="#ff5700"/>
      <path id="Path_3-9" data-name="Path 3" d="M31.076,11.91a2.027,2.027,0,0,0-.763-.147h-.028c-1.379.021-2.926,1.344-3.738,3.346-.973,2.394-.525,4.844,1.008,5.474a2.027,2.027,0,0,0,.763.147c1.386,0,2.954-1.33,3.773-3.346C33.057,14.99,32.6,12.54,31.076,11.91Z" transform="translate(-0.102 -0.028)" fill="#ff5700"/>
      <path id="Path_4-9" data-name="Path 4" d="M22.961,20.751c-1.946-3.052-2.786-4.2-5.012-4.2s-3.073,1.155-5.019,4.2c-1.666,2.6-5.033,2.821-5.873,5.033a3.208,3.208,0,0,0-.252,1.274,3.252,3.252,0,0,0,3.248,3.255c2.226,0,5.257-1.68,7.9-1.68s5.663,1.68,7.888,1.68a3.246,3.246,0,0,0,3.241-3.255,3.212,3.212,0,0,0-.259-1.274C27.987,23.565,24.627,23.355,22.961,20.751Z" transform="translate(-0.015 -0.049)" fill="#ff5700"/>
      <path id="Path_5-9" data-name="Path 5" d="M14.244,14.934a1.885,1.885,0,0,0,.28-.021c1.638-.238,2.66-2.506,2.289-5.068C16.463,7.431,15,5.625,13.467,5.625a1.885,1.885,0,0,0-.28.021c-1.638.238-2.66,2.506-2.289,5.068C11.248,13.121,12.711,14.934,14.244,14.934Z" transform="translate(-0.034 0)" fill="#ff5700"/>
      <path id="Path_6-9" data-name="Path 6" d="M8.422,20.583c1.533-.63,1.981-3.08,1.008-5.474-.819-2.016-2.387-3.346-3.773-3.346a2.027,2.027,0,0,0-.763.147c-1.533.63-1.981,3.08-1.008,5.474C4.7,19.4,6.273,20.73,7.659,20.73A2.027,2.027,0,0,0,8.422,20.583Z" transform="translate(0 -0.028)" fill="#ff5700"/>
    </g>
    <g id="Icon_ionic-ios-paw-10" data-name="Icon ionic-ios-paw" transform="translate(1822.024 453.724) rotate(-20)">
      <path id="Path_1-10" data-name="Path 1" d="M22.786,5.646a1.53,1.53,0,0,0-.252-.021v.007h-.028c-1.54,0-3,1.813-3.346,4.221-.371,2.562.658,4.83,2.289,5.068a1.885,1.885,0,0,0,.28.021c1.54,0,3-1.813,3.346-4.221C25.445,8.152,24.416,5.884,22.786,5.646Z" transform="translate(-0.071)" fill="#ff5700"/>
      <path id="Path_2-10" data-name="Path 2" d="M22.542,5.625Z" transform="translate(-0.086)" fill="#ff5700"/>
      <path id="Path_3-10" data-name="Path 3" d="M31.076,11.91a2.027,2.027,0,0,0-.763-.147h-.028c-1.379.021-2.926,1.344-3.738,3.346-.973,2.394-.525,4.844,1.008,5.474a2.027,2.027,0,0,0,.763.147c1.386,0,2.954-1.33,3.773-3.346C33.057,14.99,32.6,12.54,31.076,11.91Z" transform="translate(-0.102 -0.028)" fill="#ff5700"/>
      <path id="Path_4-10" data-name="Path 4" d="M22.961,20.751c-1.946-3.052-2.786-4.2-5.012-4.2s-3.073,1.155-5.019,4.2c-1.666,2.6-5.033,2.821-5.873,5.033a3.208,3.208,0,0,0-.252,1.274,3.252,3.252,0,0,0,3.248,3.255c2.226,0,5.257-1.68,7.9-1.68s5.663,1.68,7.888,1.68a3.246,3.246,0,0,0,3.241-3.255,3.212,3.212,0,0,0-.259-1.274C27.987,23.565,24.627,23.355,22.961,20.751Z" transform="translate(-0.015 -0.049)" fill="#ff5700"/>
      <path id="Path_5-10" data-name="Path 5" d="M14.244,14.934a1.885,1.885,0,0,0,.28-.021c1.638-.238,2.66-2.506,2.289-5.068C16.463,7.431,15,5.625,13.467,5.625a1.885,1.885,0,0,0-.28.021c-1.638.238-2.66,2.506-2.289,5.068C11.248,13.121,12.711,14.934,14.244,14.934Z" transform="translate(-0.034 0)" fill="#ff5700"/>
      <path id="Path_6-10" data-name="Path 6" d="M8.422,20.583c1.533-.63,1.981-3.08,1.008-5.474-.819-2.016-2.387-3.346-3.773-3.346a2.027,2.027,0,0,0-.763.147c-1.533.63-1.981,3.08-1.008,5.474C4.7,19.4,6.273,20.73,7.659,20.73A2.027,2.027,0,0,0,8.422,20.583Z" transform="translate(0 -0.028)" fill="#ff5700"/>
    </g>
    <g id="Icon_ionic-ios-paw-11" data-name="Icon ionic-ios-paw" transform="translate(1867.333 420.61) rotate(-20)">
      <path id="Path_1-11" data-name="Path 1" d="M22.786,5.646a1.53,1.53,0,0,0-.252-.021v.007h-.028c-1.54,0-3,1.813-3.346,4.221-.371,2.562.658,4.83,2.289,5.068a1.885,1.885,0,0,0,.28.021c1.54,0,3-1.813,3.346-4.221C25.445,8.152,24.416,5.884,22.786,5.646Z" transform="translate(-0.071)" fill="#ff5700"/>
      <path id="Path_2-11" data-name="Path 2" d="M22.542,5.625Z" transform="translate(-0.086)" fill="#ff5700"/>
      <path id="Path_3-11" data-name="Path 3" d="M31.076,11.91a2.027,2.027,0,0,0-.763-.147h-.028c-1.379.021-2.926,1.344-3.738,3.346-.973,2.394-.525,4.844,1.008,5.474a2.027,2.027,0,0,0,.763.147c1.386,0,2.954-1.33,3.773-3.346C33.057,14.99,32.6,12.54,31.076,11.91Z" transform="translate(-0.102 -0.028)" fill="#ff5700"/>
      <path id="Path_4-11" data-name="Path 4" d="M22.961,20.751c-1.946-3.052-2.786-4.2-5.012-4.2s-3.073,1.155-5.019,4.2c-1.666,2.6-5.033,2.821-5.873,5.033a3.208,3.208,0,0,0-.252,1.274,3.252,3.252,0,0,0,3.248,3.255c2.226,0,5.257-1.68,7.9-1.68s5.663,1.68,7.888,1.68a3.246,3.246,0,0,0,3.241-3.255,3.212,3.212,0,0,0-.259-1.274C27.987,23.565,24.627,23.355,22.961,20.751Z" transform="translate(-0.015 -0.049)" fill="#ff5700"/>
      <path id="Path_5-11" data-name="Path 5" d="M14.244,14.934a1.885,1.885,0,0,0,.28-.021c1.638-.238,2.66-2.506,2.289-5.068C16.463,7.431,15,5.625,13.467,5.625a1.885,1.885,0,0,0-.28.021c-1.638.238-2.66,2.506-2.289,5.068C11.248,13.121,12.711,14.934,14.244,14.934Z" transform="translate(-0.034 0)" fill="#ff5700"/>
      <path id="Path_6-11" data-name="Path 6" d="M8.422,20.583c1.533-.63,1.981-3.08,1.008-5.474-.819-2.016-2.387-3.346-3.773-3.346a2.027,2.027,0,0,0-.763.147c-1.533.63-1.981,3.08-1.008,5.474C4.7,19.4,6.273,20.73,7.659,20.73A2.027,2.027,0,0,0,8.422,20.583Z" transform="translate(0 -0.028)" fill="#ff5700"/>
    </g>
    <g id="Icon_ionic-ios-paw-12" data-name="Icon ionic-ios-paw" transform="translate(1786.23 376.61) rotate(-20)">
      <path id="Path_1-12" data-name="Path 1" d="M22.786,5.646a1.53,1.53,0,0,0-.252-.021v.007h-.028c-1.54,0-3,1.813-3.346,4.221-.371,2.562.658,4.83,2.289,5.068a1.885,1.885,0,0,0,.28.021c1.54,0,3-1.813,3.346-4.221C25.445,8.152,24.416,5.884,22.786,5.646Z" transform="translate(-0.071)" fill="#ff5700"/>
      <path id="Path_2-12" data-name="Path 2" d="M22.542,5.625Z" transform="translate(-0.086)" fill="#ff5700"/>
      <path id="Path_3-12" data-name="Path 3" d="M31.076,11.91a2.027,2.027,0,0,0-.763-.147h-.028c-1.379.021-2.926,1.344-3.738,3.346-.973,2.394-.525,4.844,1.008,5.474a2.027,2.027,0,0,0,.763.147c1.386,0,2.954-1.33,3.773-3.346C33.057,14.99,32.6,12.54,31.076,11.91Z" transform="translate(-0.102 -0.028)" fill="#ff5700"/>
      <path id="Path_4-12" data-name="Path 4" d="M22.961,20.751c-1.946-3.052-2.786-4.2-5.012-4.2s-3.073,1.155-5.019,4.2c-1.666,2.6-5.033,2.821-5.873,5.033a3.208,3.208,0,0,0-.252,1.274,3.252,3.252,0,0,0,3.248,3.255c2.226,0,5.257-1.68,7.9-1.68s5.663,1.68,7.888,1.68a3.246,3.246,0,0,0,3.241-3.255,3.212,3.212,0,0,0-.259-1.274C27.987,23.565,24.627,23.355,22.961,20.751Z" transform="translate(-0.015 -0.049)" fill="#ff5700"/>
      <path id="Path_5-12" data-name="Path 5" d="M14.244,14.934a1.885,1.885,0,0,0,.28-.021c1.638-.238,2.66-2.506,2.289-5.068C16.463,7.431,15,5.625,13.467,5.625a1.885,1.885,0,0,0-.28.021c-1.638.238-2.66,2.506-2.289,5.068C11.248,13.121,12.711,14.934,14.244,14.934Z" transform="translate(-0.034 0)" fill="#ff5700"/>
      <path id="Path_6-12" data-name="Path 6" d="M8.422,20.583c1.533-.63,1.981-3.08,1.008-5.474-.819-2.016-2.387-3.346-3.773-3.346a2.027,2.027,0,0,0-.763.147c-1.533.63-1.981,3.08-1.008,5.474C4.7,19.4,6.273,20.73,7.659,20.73A2.027,2.027,0,0,0,8.422,20.583Z" transform="translate(0 -0.028)" fill="#ff5700"/>
    </g>
    <g id="Icon_ionic-ios-paw-13" data-name="Icon ionic-ios-paw" transform="translate(1786.23 507.724) rotate(-20)">
      <path id="Path_1-13" data-name="Path 1" d="M22.786,5.646a1.53,1.53,0,0,0-.252-.021v.007h-.028c-1.54,0-3,1.813-3.346,4.221-.371,2.562.658,4.83,2.289,5.068a1.885,1.885,0,0,0,.28.021c1.54,0,3-1.813,3.346-4.221C25.445,8.152,24.416,5.884,22.786,5.646Z" transform="translate(-0.071)" fill="#ff5700"/>
      <path id="Path_2-13" data-name="Path 2" d="M22.542,5.625Z" transform="translate(-0.086)" fill="#ff5700"/>
      <path id="Path_3-13" data-name="Path 3" d="M31.076,11.91a2.027,2.027,0,0,0-.763-.147h-.028c-1.379.021-2.926,1.344-3.738,3.346-.973,2.394-.525,4.844,1.008,5.474a2.027,2.027,0,0,0,.763.147c1.386,0,2.954-1.33,3.773-3.346C33.057,14.99,32.6,12.54,31.076,11.91Z" transform="translate(-0.102 -0.028)" fill="#ff5700"/>
      <path id="Path_4-13" data-name="Path 4" d="M22.961,20.751c-1.946-3.052-2.786-4.2-5.012-4.2s-3.073,1.155-5.019,4.2c-1.666,2.6-5.033,2.821-5.873,5.033a3.208,3.208,0,0,0-.252,1.274,3.252,3.252,0,0,0,3.248,3.255c2.226,0,5.257-1.68,7.9-1.68s5.663,1.68,7.888,1.68a3.246,3.246,0,0,0,3.241-3.255,3.212,3.212,0,0,0-.259-1.274C27.987,23.565,24.627,23.355,22.961,20.751Z" transform="translate(-0.015 -0.049)" fill="#ff5700"/>
      <path id="Path_5-13" data-name="Path 5" d="M14.244,14.934a1.885,1.885,0,0,0,.28-.021c1.638-.238,2.66-2.506,2.289-5.068C16.463,7.431,15,5.625,13.467,5.625a1.885,1.885,0,0,0-.28.021c-1.638.238-2.66,2.506-2.289,5.068C11.248,13.121,12.711,14.934,14.244,14.934Z" transform="translate(-0.034 0)" fill="#ff5700"/>
      <path id="Path_6-13" data-name="Path 6" d="M8.422,20.583c1.533-.63,1.981-3.08,1.008-5.474-.819-2.016-2.387-3.346-3.773-3.346a2.027,2.027,0,0,0-.763.147c-1.533.63-1.981,3.08-1.008,5.474C4.7,19.4,6.273,20.73,7.659,20.73A2.027,2.027,0,0,0,8.422,20.583Z" transform="translate(0 -0.028)" fill="#ff5700"/>
    </g>
    <g id="Icon_ionic-ios-paw-14" data-name="Icon ionic-ios-paw" transform="translate(1822.024 684.724) rotate(-20)">
      <path id="Path_1-14" data-name="Path 1" d="M22.786,5.646a1.53,1.53,0,0,0-.252-.021v.007h-.028c-1.54,0-3,1.813-3.346,4.221-.371,2.562.658,4.83,2.289,5.068a1.885,1.885,0,0,0,.28.021c1.54,0,3-1.813,3.346-4.221C25.445,8.152,24.416,5.884,22.786,5.646Z" transform="translate(-0.071)" fill="#ff5700"/>
      <path id="Path_2-14" data-name="Path 2" d="M22.542,5.625Z" transform="translate(-0.086)" fill="#ff5700"/>
      <path id="Path_3-14" data-name="Path 3" d="M31.076,11.91a2.027,2.027,0,0,0-.763-.147h-.028c-1.379.021-2.926,1.344-3.738,3.346-.973,2.394-.525,4.844,1.008,5.474a2.027,2.027,0,0,0,.763.147c1.386,0,2.954-1.33,3.773-3.346C33.057,14.99,32.6,12.54,31.076,11.91Z" transform="translate(-0.102 -0.028)" fill="#ff5700"/>
      <path id="Path_4-14" data-name="Path 4" d="M22.961,20.751c-1.946-3.052-2.786-4.2-5.012-4.2s-3.073,1.155-5.019,4.2c-1.666,2.6-5.033,2.821-5.873,5.033a3.208,3.208,0,0,0-.252,1.274,3.252,3.252,0,0,0,3.248,3.255c2.226,0,5.257-1.68,7.9-1.68s5.663,1.68,7.888,1.68a3.246,3.246,0,0,0,3.241-3.255,3.212,3.212,0,0,0-.259-1.274C27.987,23.565,24.627,23.355,22.961,20.751Z" transform="translate(-0.015 -0.049)" fill="#ff5700"/>
      <path id="Path_5-14" data-name="Path 5" d="M14.244,14.934a1.885,1.885,0,0,0,.28-.021c1.638-.238,2.66-2.506,2.289-5.068C16.463,7.431,15,5.625,13.467,5.625a1.885,1.885,0,0,0-.28.021c-1.638.238-2.66,2.506-2.289,5.068C11.248,13.121,12.711,14.934,14.244,14.934Z" transform="translate(-0.034 0)" fill="#ff5700"/>
      <path id="Path_6-14" data-name="Path 6" d="M8.422,20.583c1.533-.63,1.981-3.08,1.008-5.474-.819-2.016-2.387-3.346-3.773-3.346a2.027,2.027,0,0,0-.763.147c-1.533.63-1.981,3.08-1.008,5.474C4.7,19.4,6.273,20.73,7.659,20.73A2.027,2.027,0,0,0,8.422,20.583Z" transform="translate(0 -0.028)" fill="#ff5700"/>
    </g>
    <g id="Icon_ionic-ios-paw-15" data-name="Icon ionic-ios-paw" transform="translate(1867.333 651.61) rotate(-20)">
      <path id="Path_1-15" data-name="Path 1" d="M22.786,5.646a1.53,1.53,0,0,0-.252-.021v.007h-.028c-1.54,0-3,1.813-3.346,4.221-.371,2.562.658,4.83,2.289,5.068a1.885,1.885,0,0,0,.28.021c1.54,0,3-1.813,3.346-4.221C25.445,8.152,24.416,5.884,22.786,5.646Z" transform="translate(-0.071)" fill="#ff5700"/>
      <path id="Path_2-15" data-name="Path 2" d="M22.542,5.625Z" transform="translate(-0.086)" fill="#ff5700"/>
      <path id="Path_3-15" data-name="Path 3" d="M31.076,11.91a2.027,2.027,0,0,0-.763-.147h-.028c-1.379.021-2.926,1.344-3.738,3.346-.973,2.394-.525,4.844,1.008,5.474a2.027,2.027,0,0,0,.763.147c1.386,0,2.954-1.33,3.773-3.346C33.057,14.99,32.6,12.54,31.076,11.91Z" transform="translate(-0.102 -0.028)" fill="#ff5700"/>
      <path id="Path_4-15" data-name="Path 4" d="M22.961,20.751c-1.946-3.052-2.786-4.2-5.012-4.2s-3.073,1.155-5.019,4.2c-1.666,2.6-5.033,2.821-5.873,5.033a3.208,3.208,0,0,0-.252,1.274,3.252,3.252,0,0,0,3.248,3.255c2.226,0,5.257-1.68,7.9-1.68s5.663,1.68,7.888,1.68a3.246,3.246,0,0,0,3.241-3.255,3.212,3.212,0,0,0-.259-1.274C27.987,23.565,24.627,23.355,22.961,20.751Z" transform="translate(-0.015 -0.049)" fill="#ff5700"/>
      <path id="Path_5-15" data-name="Path 5" d="M14.244,14.934a1.885,1.885,0,0,0,.28-.021c1.638-.238,2.66-2.506,2.289-5.068C16.463,7.431,15,5.625,13.467,5.625a1.885,1.885,0,0,0-.28.021c-1.638.238-2.66,2.506-2.289,5.068C11.248,13.121,12.711,14.934,14.244,14.934Z" transform="translate(-0.034 0)" fill="#ff5700"/>
      <path id="Path_6-15" data-name="Path 6" d="M8.422,20.583c1.533-.63,1.981-3.08,1.008-5.474-.819-2.016-2.387-3.346-3.773-3.346a2.027,2.027,0,0,0-.763.147c-1.533.63-1.981,3.08-1.008,5.474C4.7,19.4,6.273,20.73,7.659,20.73A2.027,2.027,0,0,0,8.422,20.583Z" transform="translate(0 -0.028)" fill="#ff5700"/>
    </g>
    <g id="Icon_ionic-ios-paw-16" data-name="Icon ionic-ios-paw" transform="translate(1786.23 607.61) rotate(-20)">
      <path id="Path_1-16" data-name="Path 1" d="M22.786,5.646a1.53,1.53,0,0,0-.252-.021v.007h-.028c-1.54,0-3,1.813-3.346,4.221-.371,2.562.658,4.83,2.289,5.068a1.885,1.885,0,0,0,.28.021c1.54,0,3-1.813,3.346-4.221C25.445,8.152,24.416,5.884,22.786,5.646Z" transform="translate(-0.071)" fill="#ff5700"/>
      <path id="Path_2-16" data-name="Path 2" d="M22.542,5.625Z" transform="translate(-0.086)" fill="#ff5700"/>
      <path id="Path_3-16" data-name="Path 3" d="M31.076,11.91a2.027,2.027,0,0,0-.763-.147h-.028c-1.379.021-2.926,1.344-3.738,3.346-.973,2.394-.525,4.844,1.008,5.474a2.027,2.027,0,0,0,.763.147c1.386,0,2.954-1.33,3.773-3.346C33.057,14.99,32.6,12.54,31.076,11.91Z" transform="translate(-0.102 -0.028)" fill="#ff5700"/>
      <path id="Path_4-16" data-name="Path 4" d="M22.961,20.751c-1.946-3.052-2.786-4.2-5.012-4.2s-3.073,1.155-5.019,4.2c-1.666,2.6-5.033,2.821-5.873,5.033a3.208,3.208,0,0,0-.252,1.274,3.252,3.252,0,0,0,3.248,3.255c2.226,0,5.257-1.68,7.9-1.68s5.663,1.68,7.888,1.68a3.246,3.246,0,0,0,3.241-3.255,3.212,3.212,0,0,0-.259-1.274C27.987,23.565,24.627,23.355,22.961,20.751Z" transform="translate(-0.015 -0.049)" fill="#ff5700"/>
      <path id="Path_5-16" data-name="Path 5" d="M14.244,14.934a1.885,1.885,0,0,0,.28-.021c1.638-.238,2.66-2.506,2.289-5.068C16.463,7.431,15,5.625,13.467,5.625a1.885,1.885,0,0,0-.28.021c-1.638.238-2.66,2.506-2.289,5.068C11.248,13.121,12.711,14.934,14.244,14.934Z" transform="translate(-0.034 0)" fill="#ff5700"/>
      <path id="Path_6-16" data-name="Path 6" d="M8.422,20.583c1.533-.63,1.981-3.08,1.008-5.474-.819-2.016-2.387-3.346-3.773-3.346a2.027,2.027,0,0,0-.763.147c-1.533.63-1.981,3.08-1.008,5.474C4.7,19.4,6.273,20.73,7.659,20.73A2.027,2.027,0,0,0,8.422,20.583Z" transform="translate(0 -0.028)" fill="#ff5700"/>
    </g>
    <g id="Icon_ionic-ios-paw-17" data-name="Icon ionic-ios-paw" transform="translate(1850.303 742.856) rotate(-20)">
      <path id="Path_1-17" data-name="Path 1" d="M3.7.021A1.53,1.53,0,0,0,3.449,0V.007H3.421c-1.54,0-3,1.813-3.346,4.221C-.3,6.79.734,9.057,2.365,9.3a1.885,1.885,0,0,0,.28.021c1.54,0,3-1.813,3.346-4.221C6.361,2.527,5.332.259,3.7.021Z" transform="translate(15.641 0)" fill="#ff5700"/>
      <path id="Path_2-17" data-name="Path 2" d="M0,0Z" transform="translate(19.084 0)" fill="#ff5700"/>
      <path id="Path_3-17" data-name="Path 3" d="M5.043.147A2.027,2.027,0,0,0,4.28,0H4.252C2.873.021,1.326,1.344.514,3.346-.459,5.74-.011,8.189,1.522,8.819a2.027,2.027,0,0,0,.763.147c1.386,0,2.954-1.33,3.773-3.346C7.024,3.227,6.569.777,5.043.147Z" transform="translate(22.559 6.111)" fill="#ff5700"/>
      <path id="Path_4-17" data-name="Path 4" d="M16.155,4.2C14.209,1.148,13.369,0,11.143,0S8.07,1.155,6.125,4.2C4.459,6.8,1.092,7.021.252,9.232A3.208,3.208,0,0,0,0,10.506a3.252,3.252,0,0,0,3.248,3.255c2.226,0,5.257-1.68,7.9-1.68s5.663,1.68,7.888,1.68a3.246,3.246,0,0,0,3.241-3.255,3.212,3.212,0,0,0-.259-1.274C21.181,7.014,17.821,6.8,16.155,4.2Z" transform="translate(3.419 10.877)" fill="#ff5700"/>
      <path id="Path_5-17" data-name="Path 5" d="M3.422,9.309a1.885,1.885,0,0,0,.28-.021C5.34,9.05,6.362,6.783,5.991,4.221,5.641,1.806,4.178,0,2.645,0a1.885,1.885,0,0,0-.28.021C.727.259-.295,2.527.076,5.089.426,7.5,1.889,9.309,3.422,9.309Z" transform="translate(7.417 0)" fill="#ff5700"/>
      <path id="Path_6-17" data-name="Path 6" d="M5.05,8.819c1.533-.63,1.981-3.08,1.008-5.474C5.239,1.33,3.671,0,2.285,0a2.027,2.027,0,0,0-.763.147C-.011.777-.459,3.227.514,5.621,1.333,7.636,2.9,8.966,4.287,8.966A2.027,2.027,0,0,0,5.05,8.819Z" transform="translate(0 6.111)" fill="#ff5700"/>
    </g>
    <g id="Icon_ionic-ios-paw-18" data-name="Icon ionic-ios-paw" transform="translate(1868.201 857.689) rotate(-20)">
      <path id="Path_1-18" data-name="Path 1" d="M3.7.021A1.53,1.53,0,0,0,3.449,0V.007H3.421c-1.54,0-3,1.813-3.346,4.221C-.3,6.79.734,9.057,2.365,9.3a1.885,1.885,0,0,0,.28.021c1.54,0,3-1.813,3.346-4.221C6.361,2.527,5.332.259,3.7.021Z" transform="translate(15.641 0)" fill="#ff5700"/>
      <path id="Path_2-18" data-name="Path 2" d="M0,0Z" transform="translate(19.084 0)" fill="#ff5700"/>
      <path id="Path_3-18" data-name="Path 3" d="M5.043.147A2.027,2.027,0,0,0,4.28,0H4.252C2.873.021,1.326,1.344.514,3.346-.459,5.74-.011,8.189,1.522,8.819a2.027,2.027,0,0,0,.763.147c1.386,0,2.954-1.33,3.773-3.346C7.024,3.227,6.569.777,5.043.147Z" transform="translate(22.559 6.111)" fill="#ff5700"/>
      <path id="Path_4-18" data-name="Path 4" d="M16.155,4.2C14.209,1.148,13.369,0,11.143,0S8.07,1.155,6.125,4.2C4.459,6.8,1.092,7.021.252,9.232A3.208,3.208,0,0,0,0,10.506a3.252,3.252,0,0,0,3.248,3.255c2.226,0,5.257-1.68,7.9-1.68s5.663,1.68,7.888,1.68a3.246,3.246,0,0,0,3.241-3.255,3.212,3.212,0,0,0-.259-1.274C21.181,7.014,17.821,6.8,16.155,4.2Z" transform="translate(3.419 10.877)" fill="#ff5700"/>
      <path id="Path_5-18" data-name="Path 5" d="M3.422,9.309a1.885,1.885,0,0,0,.28-.021C5.34,9.05,6.362,6.783,5.991,4.221,5.641,1.806,4.178,0,2.645,0a1.885,1.885,0,0,0-.28.021C.727.259-.295,2.527.076,5.089.426,7.5,1.889,9.309,3.422,9.309Z" transform="translate(7.417 0)" fill="#ff5700"/>
      <path id="Path_6-18" data-name="Path 6" d="M5.05,8.819c1.533-.63,1.981-3.08,1.008-5.474C5.239,1.33,3.671,0,2.285,0a2.027,2.027,0,0,0-.763.147C-.011.777-.459,3.227.514,5.621,1.333,7.636,2.9,8.966,4.287,8.966A2.027,2.027,0,0,0,5.05,8.819Z" transform="translate(0 6.111)" fill="#ff5700"/>
    </g>
    <g id="Icon_ionic-ios-paw-19" data-name="Icon ionic-ios-paw" transform="translate(1850.303 816.689) rotate(-20)">
      <path id="Path_1-19" data-name="Path 1" d="M3.7.021A1.53,1.53,0,0,0,3.449,0V.007H3.421c-1.54,0-3,1.813-3.346,4.221C-.3,6.79.734,9.057,2.365,9.3a1.885,1.885,0,0,0,.28.021c1.54,0,3-1.813,3.346-4.221C6.361,2.527,5.332.259,3.7.021Z" transform="translate(15.641 0)" fill="#ff5700"/>
      <path id="Path_2-19" data-name="Path 2" d="M0,0Z" transform="translate(19.084 0)" fill="#ff5700"/>
      <path id="Path_3-19" data-name="Path 3" d="M5.043.147A2.027,2.027,0,0,0,4.28,0H4.252C2.873.021,1.326,1.344.514,3.346-.459,5.74-.011,8.189,1.522,8.819a2.027,2.027,0,0,0,.763.147c1.386,0,2.954-1.33,3.773-3.346C7.024,3.227,6.569.777,5.043.147Z" transform="translate(22.559 6.111)" fill="#ff5700"/>
      <path id="Path_4-19" data-name="Path 4" d="M16.155,4.2C14.209,1.148,13.369,0,11.143,0S8.07,1.155,6.125,4.2C4.459,6.8,1.092,7.021.252,9.232A3.208,3.208,0,0,0,0,10.506a3.252,3.252,0,0,0,3.248,3.255c2.226,0,5.257-1.68,7.9-1.68s5.663,1.68,7.888,1.68a3.246,3.246,0,0,0,3.241-3.255,3.212,3.212,0,0,0-.259-1.274C21.181,7.014,17.821,6.8,16.155,4.2Z" transform="translate(3.419 10.877)" fill="#ff5700"/>
      <path id="Path_5-19" data-name="Path 5" d="M3.422,9.309a1.885,1.885,0,0,0,.28-.021C5.34,9.05,6.362,6.783,5.991,4.221,5.641,1.806,4.178,0,2.645,0a1.885,1.885,0,0,0-.28.021C.727.259-.295,2.527.076,5.089.426,7.5,1.889,9.309,3.422,9.309Z" transform="translate(7.417 0)" fill="#ff5700"/>
      <path id="Path_6-19" data-name="Path 6" d="M5.05,8.819c1.533-.63,1.981-3.08,1.008-5.474C5.239,1.33,3.671,0,2.285,0a2.027,2.027,0,0,0-.763.147C-.011.777-.459,3.227.514,5.621,1.333,7.636,2.9,8.966,4.287,8.966A2.027,2.027,0,0,0,5.05,8.819Z" transform="translate(0 6.111)" fill="#ff5700"/>
    </g>
  </g>
</svg>
